<svg width="15" height="15" viewBox="0 0 15 15" fill="none" xmlns="http://www.w3.org/2000/svg">
<g clip-path="url(#clip0)">
<path d="M11.4928 9.9092C11.611 9.88163 11.6844 9.76345 11.6569 9.64529C11.6293 9.52711 11.5111 9.45372 11.393 9.48126C11.0371 9.56429 10.7198 9.76769 10.4957 10.0549C10.1842 9.9208 9.83931 9.88951 9.50284 9.96803C9.38465 9.99559 9.3112 10.1138 9.33877 10.2319C9.36634 10.3501 9.48458 10.4236 9.60268 10.396C9.90429 10.3256 10.2152 10.3767 10.478 10.54C10.7409 10.7032 10.9243 10.9589 10.9945 11.2601C11.012 11.3352 11.022 11.4119 11.0244 11.4881C11.0281 11.607 11.1257 11.701 11.2439 11.701C11.2462 11.701 11.2485 11.701 11.2508 11.7009C11.3721 11.6972 11.4674 11.5958 11.4636 11.4745C11.4604 11.3694 11.4465 11.2637 11.4224 11.1604C11.3411 10.8113 11.1492 10.5069 10.8751 10.2848C11.035 10.0979 11.2517 9.96545 11.4928 9.9092Z" fill="#A6A6A6"/>
<path d="M4.81385 10.1996C4.82164 9.95027 4.88287 9.69987 5.0005 9.46523C5.1582 9.15056 5.40312 8.89354 5.70878 8.72197C5.8146 8.66259 5.85222 8.52864 5.79283 8.42282C5.73345 8.317 5.59953 8.27939 5.49368 8.33877C5.11121 8.55346 4.80483 8.87487 4.60763 9.2683C4.48209 9.51879 4.40823 9.7836 4.38313 10.0497C3.88619 10.2579 3.47578 10.6461 3.24401 11.1339C3.19195 11.2435 3.23856 11.3746 3.34819 11.4267C3.37863 11.4412 3.41074 11.448 3.44235 11.448C3.52453 11.448 3.60333 11.4017 3.64095 11.3225C3.80059 10.9865 4.06634 10.7097 4.39092 10.5328C4.45247 11.0123 4.67308 11.4698 5.03943 11.8264C5.08215 11.8679 5.13743 11.8886 5.19263 11.8886C5.24987 11.8886 5.30706 11.8664 5.35013 11.8222C5.43476 11.7352 5.43286 11.5961 5.34588 11.5114C4.98635 11.1616 4.80242 10.69 4.81353 10.2136C4.81373 10.2089 4.81394 10.2043 4.81385 10.1996Z" fill="#A6A6A6"/>
<path d="M8.84032 3.92186C8.72354 3.88899 8.60216 3.95701 8.56926 4.07382C8.53639 4.19063 8.60442 4.31197 8.72126 4.34485C9.20425 4.48081 9.59091 4.8075 9.80844 5.23154C9.81043 5.23565 9.81243 5.23975 9.81471 5.24376C9.92686 5.46665 9.99254 5.71591 10.0011 5.97829C10.0127 6.33006 9.92003 6.6728 9.73329 6.96944C9.66864 7.07212 9.69948 7.20779 9.80217 7.27245C9.83853 7.29536 9.87902 7.30626 9.91904 7.30626C9.99202 7.30626 10.0634 7.2699 10.1052 7.20358C10.3389 6.83238 10.4548 6.40371 10.4403 5.96391C10.4312 5.68386 10.3697 5.41588 10.2648 5.17008C10.6021 4.74999 10.7776 4.21301 10.7486 3.67374C10.742 3.55257 10.6378 3.45979 10.5173 3.46614C10.3961 3.47268 10.3032 3.57621 10.3097 3.69738C10.3297 4.06884 10.2282 4.43895 10.0274 4.74932C9.7446 4.35721 9.33242 4.06037 8.84032 3.92186Z" fill="#A6A6A6"/>
<path d="M14.6561 9.02786C14.5967 8.53805 14.3118 8.10683 13.9003 7.85499C14.2999 7.44691 14.5309 6.89244 14.5309 6.31436C14.5309 5.76161 14.3251 5.23336 13.9514 4.82687C13.6411 4.48934 13.238 4.25988 12.7962 4.16534C12.8368 3.99691 12.8573 3.82412 12.8573 3.64901C12.8573 2.43697 11.8722 1.4509 10.6614 1.4509C10.6304 1.4509 10.5995 1.45178 10.5685 1.4531C10.5618 1.45339 10.555 1.45374 10.5482 1.45409C10.5185 1.45562 10.4889 1.45764 10.4594 1.46033C10.4589 1.46039 10.4583 1.46039 10.4578 1.46045C10.3875 0.64333 9.70059 0 8.86637 0C8.2879 0 7.7803 0.309404 7.49999 0.771504C7.21968 0.309404 6.71208 0 6.13361 0C5.29938 0 4.61252 0.643359 4.54224 1.46042C4.10832 1.41979 3.67021 1.51046 3.29161 1.71633C3.185 1.77431 3.14559 1.90772 3.20354 2.01434C3.26152 2.12092 3.39482 2.16035 3.50155 2.1024C3.86606 1.90415 4.301 1.8409 4.7145 1.9311C4.71632 1.93151 4.71816 1.93163 4.71998 1.93195C4.93508 1.97962 5.13711 2.06648 5.32042 2.19047C5.35815 2.21599 5.40096 2.22823 5.44332 2.22823C5.51381 2.22823 5.58307 2.19437 5.62555 2.13158C5.69351 2.03106 5.66715 1.89445 5.5666 1.82648C5.3839 1.70291 5.18609 1.60919 4.97709 1.54579C5.00489 0.931025 5.51293 0.439453 6.13361 0.439453C6.7134 0.439453 7.19495 0.868389 7.27856 1.426C7.27244 1.4828 7.26907 4.79713 7.26907 4.79713C6.6098 5.08307 5.84451 4.94145 5.33009 4.42699C5.08118 4.17809 4.91448 3.86464 4.84807 3.52049C4.8251 3.40137 4.71005 3.32335 4.59066 3.34641C4.47151 3.3694 4.39355 3.48466 4.41658 3.60381C4.49973 4.03444 4.70817 4.42658 5.01933 4.73774C5.44273 5.16114 6.00207 5.38269 6.56999 5.38269C6.80454 5.38269 7.04058 5.3448 7.2691 5.26784C7.2691 5.26784 7.27235 13.3363 7.27859 13.397C7.18842 14.0533 6.62501 14.5605 5.94512 14.5605C5.35552 14.5605 4.83805 14.1738 4.66256 13.6223C4.90373 13.4605 5.1154 13.2522 5.28301 13.0038C5.35089 12.9032 5.32437 12.7666 5.2238 12.6988C5.12322 12.6308 4.98664 12.6574 4.91876 12.758C4.77251 12.9746 4.58498 13.154 4.37067 13.2887C4.37372 13.2936 4.37644 13.2988 4.37932 13.3038C4.35207 13.3076 4.32538 13.3163 4.3008 13.3303C4.02462 13.4876 3.71035 13.5708 3.39189 13.5708C2.37661 13.5708 1.55061 12.7438 1.55061 11.7273C1.55061 11.4013 1.63557 11.0852 1.797 10.8059C1.79706 10.806 1.79715 10.8061 1.79721 10.8062C1.90508 10.6192 2.04582 10.4501 2.2165 10.3083C2.30981 10.2307 2.32256 10.0921 2.24501 9.99882C2.16743 9.90551 2.02894 9.8927 1.93555 9.97031C1.80611 10.0779 1.69062 10.1982 1.58964 10.3284C1.0608 10.1665 0.711903 9.64333 0.780106 9.08077C0.833895 8.63713 1.1428 8.25973 1.56708 8.11934C1.56746 8.11922 1.56784 8.11898 1.56822 8.11887C1.72748 8.06631 1.89758 8.04873 2.06899 8.06959C2.14555 8.07891 2.22104 8.09572 2.29344 8.11963C2.40869 8.15771 2.53294 8.09508 2.57097 7.97982C2.60899 7.86457 2.54641 7.74032 2.43119 7.70229C2.33135 7.66934 2.22734 7.64613 2.12202 7.63333C1.92588 7.60951 1.73088 7.62208 1.54464 7.66831C1.1445 7.33556 0.908514 6.83704 0.908514 6.31436C0.908514 5.87206 1.07313 5.44942 1.37202 5.12426C1.63311 4.84025 1.97624 4.65202 2.35089 4.58429C2.54861 5.00429 2.87773 5.35509 3.28637 5.57874C3.31985 5.59708 3.356 5.60575 3.39166 5.60575C3.46935 5.60575 3.54468 5.56444 3.58461 5.49149C3.64285 5.38503 3.6038 5.25152 3.49733 5.19325C3.14735 5.00168 2.87014 4.69365 2.71683 4.32595C2.71279 4.31628 2.58201 3.8613 2.58201 3.64898C2.58201 3.29648 2.68572 2.95649 2.88192 2.66575C2.9498 2.56518 2.92329 2.42859 2.82271 2.36071C2.72211 2.29283 2.58556 2.31935 2.51767 2.41992C2.27228 2.78355 2.14256 3.20856 2.14256 3.64898C2.14256 3.82409 2.16306 3.99691 2.20373 4.16531C1.7619 4.25985 1.35878 4.48931 1.04847 4.82684C0.674813 5.23333 0.469032 5.76158 0.469032 6.31433C0.469032 6.89244 0.699979 7.44691 1.09962 7.85496C0.688084 8.1068 0.403202 8.53802 0.343846 9.02783C0.254637 9.76348 0.682723 10.4506 1.34949 10.7102C1.19287 11.0246 1.1111 11.3712 1.1111 11.7273C1.1111 12.9861 2.13424 14.0102 3.39183 14.0102C3.69397 14.0102 3.99312 13.9498 4.27039 13.8339C4.52603 14.5235 5.19131 15 5.94512 15C6.6113 15 7.19307 14.6327 7.49999 14.09C7.80687 14.6327 8.38865 15 9.05483 15C9.8087 15 10.474 14.5236 10.7295 13.834C11.0068 13.9498 11.3059 14.0103 11.6081 14.0103C11.9164 14.0103 12.2155 13.9497 12.4972 13.8302C12.609 13.7828 12.6611 13.6539 12.6137 13.5422C12.5663 13.4304 12.4374 13.3783 12.3256 13.4257C12.0985 13.522 11.8571 13.5708 11.6081 13.5708C11.2896 13.5708 10.9753 13.4877 10.6992 13.3303C10.6977 13.3294 10.696 13.3288 10.6945 13.328C10.4502 13.1883 10.2407 12.9942 10.0812 12.758C10.0134 12.6574 9.87676 12.6309 9.77621 12.6988C9.6756 12.7667 9.64909 12.9032 9.717 13.0038C9.88332 13.2503 10.094 13.4595 10.3372 13.6229C10.1616 14.1741 9.64423 14.5605 9.05483 14.5605C8.375 14.5605 7.81156 14.0533 7.72144 13.3969C7.72768 13.3363 7.72757 1.48277 7.72144 1.42597C7.80503 0.868389 8.28658 0.439453 8.86637 0.439453C9.48705 0.439453 9.99512 0.931055 10.0229 1.54582C9.81397 1.60948 9.61426 1.70408 9.43335 1.82645C9.33283 1.89445 9.30646 2.03104 9.37446 2.13155C9.41691 2.19434 9.48617 2.2282 9.55666 2.2282C9.59899 2.2282 9.64182 2.21599 9.67956 2.19044C9.86586 2.0644 10.0772 1.97558 10.2969 1.92891C10.4425 1.8924 10.6324 1.89026 10.6614 1.89026C11.6299 1.89026 12.4179 2.6792 12.4179 3.64893C12.4179 3.86121 12.3803 4.06916 12.3061 4.26703C12.3056 4.26832 12.3053 4.2697 12.3048 4.27099C12.1564 4.66374 11.8717 4.99116 11.5026 5.19322C11.3962 5.25149 11.3571 5.38503 11.4153 5.49147C11.4553 5.56444 11.5306 5.60572 11.6083 5.60572C11.6439 5.60572 11.6801 5.59702 11.7136 5.57871C12.1243 5.35389 12.4511 5.00464 12.6488 4.5842C13.0236 4.6519 13.3667 4.84014 13.6279 5.1242C13.9268 5.44937 14.0914 5.872 14.0914 6.3143C14.0914 6.83707 13.8553 7.3357 13.455 7.66846C13.2679 7.62196 13.0731 7.6096 12.8778 7.63327C12.7725 7.6461 12.6685 7.66928 12.5687 7.70224C12.4534 7.74026 12.3909 7.86451 12.4289 7.97977C12.4669 8.09502 12.5911 8.15757 12.7064 8.11957C12.7788 8.09569 12.8543 8.07885 12.9309 8.06953C13.1014 8.04882 13.2715 8.06596 13.4317 8.11881C13.4321 8.11893 13.4324 8.11913 13.4328 8.11928C13.8571 8.25967 14.166 8.63707 14.2198 9.08074C14.288 9.64327 13.9391 10.1664 13.4103 10.3283C13.3087 10.1972 13.1931 10.0774 13.0643 9.97028C12.971 9.8927 12.8325 9.90545 12.7549 9.99876C12.6774 10.0921 12.6901 10.2306 12.7834 10.3082C12.9255 10.4263 13.0477 10.5638 13.1483 10.7174C13.1552 10.7279 13.162 10.7384 13.1687 10.749C13.1764 10.7613 13.1838 10.7737 13.1912 10.7862C13.3602 11.0704 13.4493 11.3935 13.4493 11.7273C13.4493 12.1741 13.2876 12.6051 12.9941 12.9409C12.9142 13.0322 12.9236 13.1711 13.0149 13.2509C13.1063 13.3308 13.2451 13.3215 13.325 13.2301C13.6885 12.8143 13.8887 12.2806 13.8887 11.7274C13.8887 11.3712 13.807 11.0246 13.6504 10.7103C14.3172 10.4507 14.7453 9.76351 14.6561 9.02786Z" fill="#A6A6A6"/>
</g>
<defs>
<clipPath id="clip0">
<rect width="15" height="15" fill="white"/>
</clipPath>
</defs>
</svg>
