<svg width="15" height="15" viewBox="0 0 15 15" fill="none" xmlns="http://www.w3.org/2000/svg">
<path d="M13.9258 2.42308C13.9297 2.41154 13.922 2.4 13.922 2.38846V0.384615C13.9297 0.180769 13.7681 0.00769231 13.5605 0C13.5566 0 13.5528 0 13.5489 0H1.44507C1.24122 0 1.07199 0.169231 1.07584 0.373077C1.07584 0.376923 1.07584 0.380769 1.07584 0.384615V2.38846C1.07584 2.4 1.06815 2.41154 1.07199 2.42308C1.07199 2.42692 1.06815 2.43462 1.07199 2.43846C1.07199 2.44615 1.07199 2.45385 1.07199 2.45769C1.07199 2.46538 1.07199 2.46923 1.07584 2.47692C1.07968 2.48462 1.07968 2.48846 1.07968 2.49231C1.07968 2.49615 1.08353 2.50385 1.08353 2.51154C1.08353 2.51538 1.08738 2.52308 1.08738 2.52692C1.09122 2.53462 1.09122 2.53846 1.09507 2.54615C1.09891 2.55 1.09891 2.55769 1.10276 2.56154C1.10661 2.56538 1.10661 2.57308 1.11045 2.57692C1.1143 2.58077 1.11815 2.58846 1.11815 2.59231C1.11815 2.59615 1.12584 2.60385 1.12584 2.60769C1.12968 2.61154 1.13353 2.61923 1.13738 2.62308C1.14122 2.62692 1.14507 2.63077 1.14507 2.63462C1.14507 2.63462 1.15276 2.63462 1.15661 2.63846L5.76815 8.06154V14.6154C5.7643 14.7615 5.84507 14.8962 5.97968 14.9615C6.02968 14.9846 6.08353 15 6.14122 15C6.22968 15 6.3143 14.9692 6.37968 14.9154L9.09507 12.7115C9.18353 12.6385 9.23353 12.5269 9.22968 12.4115V8.06154L13.8374 2.63846C13.8374 2.63846 13.8412 2.63846 13.8451 2.63462C13.8489 2.63077 13.8528 2.62692 13.8566 2.62308C13.8605 2.61923 13.8643 2.61154 13.8681 2.60769C13.872 2.60385 13.8758 2.59615 13.8797 2.59231C13.8835 2.58846 13.8874 2.58077 13.8874 2.57692C13.8912 2.57308 13.8951 2.56538 13.8951 2.56154C13.8989 2.55769 13.8989 2.55 13.9028 2.54615C13.9066 2.53846 13.9066 2.53462 13.9105 2.52692C13.9143 2.52308 13.9143 2.51538 13.9143 2.51154C13.9181 2.50385 13.9181 2.5 13.9181 2.49231C13.9181 2.48462 13.922 2.48077 13.922 2.47692C13.922 2.47308 13.9258 2.46538 13.9258 2.45769C13.9258 2.45 13.9297 2.44231 13.9297 2.43846C13.9297 2.43462 13.922 2.42692 13.9258 2.42308ZM8.56045 7.66923C8.49891 7.73846 8.4643 7.82692 8.46045 7.91923V12.2269L6.53738 13.8077V7.91923C6.53353 7.82692 6.49891 7.73846 6.43738 7.66923L2.27584 2.76923H12.722L8.56045 7.66923ZM13.1528 2H1.84507V0.769231H13.1528V2Z" fill="black"/>
</svg>
