<svg width="15" height="15" viewBox="0 0 15 15" fill="#000000" xmlns="http://www.w3.org/2000/svg">
<path d="M14.6963 13.23L11.5261 10.0596C12.2966 8.98797 12.7202 7.70738 12.7202 6.3594C12.7202 4.66145 12.0591 3.0646 10.8567 1.86333C9.65683 0.662588 8.05877 0 6.35959 0C4.66093 0 3.06339 0.661033 1.86251 1.86333C0.661626 3.06356 0 4.66093 0 6.3594C0 8.05786 0.661107 9.65471 1.86251 10.8565C3.06339 12.0572 4.66042 12.7198 6.35959 12.7198C7.70721 12.7198 8.98691 12.2983 10.0597 11.5258L13.2299 14.6962C13.4332 14.8989 13.6976 15 13.9631 15C14.2291 15 14.4941 14.8989 14.6963 14.6962C15.1012 14.2908 15.1012 13.6349 14.6963 13.23ZM3.32939 9.38978C2.51947 8.57995 2.07406 7.50311 2.07406 6.35888C2.07406 5.21464 2.51947 4.13884 3.32939 3.32901C4.13879 2.51918 5.21471 2.07331 6.35959 2.07331C7.50447 2.07331 8.58091 2.51918 9.39031 3.32901C10.2002 4.13884 10.6462 5.21516 10.6462 6.3594C10.6462 7.50363 10.2008 8.57995 9.39031 9.3903C8.58039 10.2001 7.50499 10.645 6.35959 10.645C5.21419 10.645 4.13775 10.1991 3.32939 9.38978Z" fill="black"/>
</svg>
